<?xml version="1.0" encoding="UTF-8"?>
<!-- Generator: visioncortex VTracer 0.6.5 -->
<svg version="1.1" xmlns="http://www.w3.org/2000/svg" width="400" height="400">
<path d="M0 0 C0.46 0 0.46 0 2.77 0.01 C17.25 0.08 31.14 0.96 45.25 4.44 C45.68 4.54 45.68 4.54 47.88 5.05 C85.22 14.02 118.91 33.86 145.34 61.6 C147.84 64.19 150.03 65.9 153.25 67.44 C153.94 69.1 154.61 70.76 155.25 72.44 C156.24 72.77 157.23 73.1 158.25 73.44 C158.58 74.43 158.91 75.42 159.25 76.44 C159.62 76.8 159.62 76.8 161.49 78.66 C164.65 81.84 166.95 85.19 169.38 88.94 C169.8 89.59 170.23 90.24 170.68 90.91 C177.54 101.37 177.54 101.37 178.25 107.44 C179.24 107.77 180.23 108.1 181.25 108.44 C182.16 110.43 182.16 110.43 182.88 112.88 C184.66 118.84 184.66 118.84 187.25 121.44 C189.04 125.59 190.35 129.25 190.81 133.75 C191.25 137.44 191.25 137.44 193.25 140.44 C202.13 157.02 201.07 177.3 200.96 195.56 C200.93 199.4 200.96 203.25 201 207.09 C201.17 225.73 199.83 242.49 194.25 260.44 C193.59 260.44 192.93 260.44 192.25 260.44 C190.34 267.84 190.34 267.84 189.81 271.5 C189.12 275.14 187.8 278.08 186.25 281.44 C185.59 281.44 184.93 281.44 184.25 281.44 C184.15 282.49 184.04 283.54 183.94 284.62 C183.27 288.32 182.5 290.47 180.25 293.44 C179.59 293.44 178.93 293.44 178.25 293.44 C178.04 294.57 177.83 295.7 177.61 296.86 C176.29 302.15 173.52 306.18 170.44 310.62 C169.92 311.41 169.39 312.19 168.86 312.99 C165.96 317.26 162.97 320.88 159.25 324.44 C158.88 325.18 158.51 325.92 158.12 326.69 C157.84 327.26 157.55 327.84 157.25 328.44 C156.26 328.77 155.27 329.1 154.25 329.44 C154.15 330.04 154.04 330.63 153.94 331.25 C153.03 334.13 151.41 334.65 148.96 336.22 C145.86 338.43 143.37 341.25 140.75 344 C129.82 355.16 117.46 364.16 104.25 372.44 C103.65 372.82 103.05 373.19 102.43 373.58 C86.9 383.26 69.52 389.96 51.94 394.88 C51.55 394.99 51.55 394.99 49.56 395.55 C33.43 399.77 17.11 400.99 0.5 400.88 C-0.41 400.87 -1.33 400.87 -2.27 400.87 C-16.75 400.79 -30.64 399.91 -44.75 396.44 C-45.62 396.23 -46.48 396.03 -47.38 395.82 C-84.72 386.85 -118.41 367.02 -144.84 339.27 C-147.34 336.68 -149.53 334.97 -152.75 333.44 C-153.44 331.78 -154.11 330.11 -154.75 328.44 C-155.74 328.11 -156.73 327.78 -157.75 327.44 C-157.91 326.94 -157.91 326.94 -158.75 324.44 C-159.12 324.07 -159.12 324.07 -160.99 322.22 C-164.15 319.04 -166.45 315.68 -168.88 311.94 C-169.3 311.29 -169.73 310.64 -170.18 309.96 C-177.04 299.5 -177.04 299.5 -177.75 293.44 C-178.74 293.11 -179.73 292.78 -180.75 292.44 C-181.66 290.44 -181.66 290.44 -182.38 288 C-184.16 282.03 -184.16 282.03 -186.75 279.44 C-188.54 275.28 -189.85 271.63 -190.31 267.12 C-190.75 263.44 -190.75 263.44 -192.75 260.44 C-201.63 243.86 -200.57 223.57 -200.46 205.32 C-200.43 201.47 -200.46 197.63 -200.5 193.78 C-200.67 175.15 -199.33 158.39 -193.75 140.44 C-193.09 140.44 -192.43 140.44 -191.75 140.44 C-189.84 133.03 -189.84 133.03 -189.31 129.38 C-188.62 125.74 -187.3 122.8 -185.75 119.44 C-185.09 119.44 -184.43 119.44 -183.75 119.44 C-183.65 118.39 -183.54 117.33 -183.44 116.25 C-182.77 112.55 -182 110.41 -179.75 107.44 C-179.09 107.44 -178.43 107.44 -177.75 107.44 C-177.54 106.31 -177.33 105.18 -177.11 104.01 C-175.79 98.72 -173.02 94.69 -169.94 90.25 C-169.42 89.47 -168.89 88.69 -168.36 87.88 C-165.46 83.62 -162.47 80 -158.75 76.44 C-158.38 75.69 -158.01 74.95 -157.62 74.19 C-156.75 72.44 -156.75 72.44 -153.75 71.44 C-153.7 71.14 -153.7 71.14 -153.44 69.62 C-152.53 66.75 -150.91 66.22 -148.46 64.66 C-145.36 62.45 -142.87 59.62 -140.25 56.88 C-129.32 45.71 -116.96 36.71 -103.75 28.44 C-103.45 28.25 -103.45 28.25 -101.93 27.29 C-86.4 17.62 -69.02 10.92 -51.44 6 C-50.65 5.78 -49.87 5.55 -49.06 5.33 C-32.93 1.11 -16.61 -0.12 0 0 Z M-181.75 113.44 C-180.75 115.44 -180.75 115.44 -180.75 115.44 Z M181.25 113.44 C182.25 115.44 182.25 115.44 182.25 115.44 Z M-187.75 127.44 C-186.75 129.44 -186.75 129.44 -186.75 129.44 Z M187.25 127.44 C188.25 129.44 188.25 129.44 188.25 129.44 Z M-188.75 129.44 C-187.75 131.44 -187.75 131.44 -187.75 131.44 Z M188.25 129.44 C189.25 131.44 189.25 131.44 189.25 131.44 Z M-193.75 144.44 C-192.75 146.44 -192.75 146.44 -192.75 146.44 Z M193.25 144.44 C194.25 146.44 194.25 146.44 194.25 146.44 Z M-194.75 147.44 C-193.75 150.44 -193.75 150.44 -193.75 150.44 Z M194.25 147.44 C195.25 150.44 195.25 150.44 195.25 150.44 Z M-195.75 151.44 C-194.75 154.44 -194.75 154.44 -194.75 154.44 Z M195.25 151.44 C196.25 154.44 196.25 154.44 196.25 154.44 Z M-196.75 155.44 C-195.75 159.44 -195.75 159.44 -195.75 159.44 Z M196.25 155.44 C197.25 159.44 197.25 159.44 197.25 159.44 Z M-197.75 160.44 C-196.75 164.44 -196.75 164.44 -196.75 164.44 Z M197.25 160.44 C198.25 164.44 198.25 164.44 198.25 164.44 Z M-198.75 165.44 C-198.75 167.09 -198.75 168.74 -198.75 170.44 C-198.42 170.44 -198.09 170.44 -197.75 170.44 C-197.75 168.79 -197.75 167.14 -197.75 165.44 C-198.08 165.44 -198.41 165.44 -198.75 165.44 Z M198.25 165.44 C198.25 167.09 198.25 168.74 198.25 170.44 C198.58 170.44 198.91 170.44 199.25 170.44 C199.25 168.79 199.25 167.14 199.25 165.44 C198.92 165.44 198.59 165.44 198.25 165.44 Z M-198.75 230.44 C-198.75 232.09 -198.75 233.74 -198.75 235.44 C-198.42 235.44 -198.09 235.44 -197.75 235.44 C-197.75 233.79 -197.75 232.14 -197.75 230.44 C-198.08 230.44 -198.41 230.44 -198.75 230.44 Z M198.25 230.44 C198.25 232.09 198.25 233.74 198.25 235.44 C198.58 235.44 198.91 235.44 199.25 235.44 C199.25 233.79 199.25 232.14 199.25 230.44 C198.92 230.44 198.59 230.44 198.25 230.44 Z M-197.75 236.44 C-196.75 240.44 -196.75 240.44 -196.75 240.44 Z M197.25 236.44 C198.25 240.44 198.25 240.44 198.25 240.44 Z M-196.75 241.44 C-195.75 245.44 -195.75 245.44 -195.75 245.44 Z M196.25 241.44 C197.25 245.44 197.25 245.44 197.25 245.44 Z M-195.75 246.44 C-194.75 249.44 -194.75 249.44 -194.75 249.44 Z M195.25 246.44 C196.25 249.44 196.25 249.44 196.25 249.44 Z M-194.75 250.44 C-193.75 253.44 -193.75 253.44 -193.75 253.44 Z M194.25 250.44 C195.25 253.44 195.25 253.44 195.25 253.44 Z M-193.75 254.44 C-192.75 256.44 -192.75 256.44 -192.75 256.44 Z M193.25 254.44 C194.25 256.44 194.25 256.44 194.25 256.44 Z M-188.75 269.44 C-187.75 271.44 -187.75 271.44 -187.75 271.44 Z M188.25 269.44 C189.25 271.44 189.25 271.44 189.25 271.44 Z M-187.75 271.44 C-186.75 273.44 -186.75 273.44 -186.75 273.44 Z M187.25 271.44 C188.25 273.44 188.25 273.44 188.25 273.44 Z M-181.75 285.44 C-180.75 287.44 -180.75 287.44 -180.75 287.44 Z M181.25 285.44 C182.25 287.44 182.25 287.44 182.25 287.44 Z " fill="#FEFEFE" transform="translate(199.75,-0.4375)"/>
<path d="M0 0 C3.19 1.5 5 2.89 7.25 5.62 C9.72 8.55 12.26 11.32 15 14 C25.39 24.27 25.39 24.27 28 30 C27.75 30.33 27.75 30.33 26.46 31.98 C21.43 38.66 17.27 45.3 14 53 C13.58 53.98 13.17 54.95 12.74 55.96 C6.5 73.64 8.31 94.14 16 111 C16.26 111.59 16.26 111.59 17.57 114.57 C21.72 123.05 27.37 129.43 34 136 C34.31 136.33 34.31 136.33 35.89 137.99 C51.95 153.69 73.66 156.66 95 157 C90.72 164.94 86.3 172.8 81.82 180.63 C80.74 182.52 79.65 184.42 78.57 186.32 C77.88 187.54 77.18 188.75 76.48 189.97 C75.86 191.06 75.24 192.14 74.6 193.26 C73.46 195.21 72.25 197.12 71 199 C68.9 199.36 68.9 199.36 66.27 199.34 C65.29 199.34 64.31 199.34 63.3 199.34 C62.24 199.32 61.18 199.31 60.09 199.29 C59 199.29 57.92 199.28 56.8 199.28 C53.32 199.26 49.85 199.23 46.38 199.19 C44.02 199.17 41.67 199.16 39.32 199.15 C33.55 199.11 27.77 199.06 22 199 C21.61 198.3 21.22 197.6 20.82 196.88 C13.21 183.19 5.48 169.6 -2.44 156.09 C-6.13 149.78 -9.79 143.46 -13.44 137.12 C-14.06 136.05 -14.68 134.98 -15.31 133.87 C-17.86 129.45 -20.41 125.02 -22.96 120.6 C-24.27 118.32 -25.58 116.05 -26.89 113.78 C-28.16 111.58 -29.42 109.37 -30.69 107.16 C-33.47 102.32 -36.28 97.51 -39.23 92.77 C-39.72 91.98 -40.2 91.2 -40.7 90.39 C-41.58 88.97 -42.47 87.56 -43.38 86.16 C-44.54 84.29 -44.54 84.29 -46 81 C-44.86 77.29 -42.99 74.01 -41.09 70.64 C-40.52 69.62 -39.95 68.59 -39.36 67.54 C-38.74 66.45 -38.13 65.37 -37.5 64.25 C-36.87 63.12 -36.23 62 -35.58 60.84 C-31.76 54.06 -27.88 47.31 -23.91 40.62 C-19.28 32.82 -14.78 24.95 -10.26 17.08 C-6.95 11.32 -3.57 5.61 0 0 Z " fill="#212121" transform="translate(114,120)"/>
<path d="M0 0 C2.33 0.06 4.66 0.11 6.99 0.16 C12.68 0.3 18.37 0.5 24.06 0.75 C24.25 1.08 24.25 1.08 25.19 2.78 C37.76 25.36 37.76 25.36 44.17 36.16 C47.91 42.48 51.59 48.83 55.25 55.19 C55.57 55.74 55.57 55.74 57.18 58.54 C59.14 61.94 61.1 65.35 63.06 68.75 C64.96 72.04 66.86 75.33 68.75 78.63 C69.99 80.78 71.23 82.94 72.47 85.09 C75.64 90.62 78.87 96.1 82.19 101.54 C82.85 102.64 83.51 103.73 84.19 104.86 C85.45 106.95 86.73 109.03 88.02 111.1 C88.3 111.57 88.3 111.57 89.72 113.93 C90.22 114.74 90.73 115.55 91.24 116.39 C92.06 118.75 92.06 118.75 91.39 121.22 C90.95 122.05 90.51 122.89 90.06 123.75 C89.62 124.61 89.17 125.46 88.71 126.34 C88.2 127.26 87.68 128.17 87.16 129.11 C86.58 130.13 86.01 131.16 85.42 132.22 C85.11 132.76 85.11 132.76 83.56 135.5 C82.93 136.62 82.31 137.74 81.66 138.89 C77.3 146.62 72.86 154.29 68.33 161.91 C64.83 167.82 61.45 173.78 58.06 179.75 C55.06 177.12 53.36 174.03 51.41 170.58 C51.07 169.98 50.73 169.38 50.38 168.76 C49.29 166.84 48.21 164.92 47.12 163 C46.4 161.72 45.68 160.45 44.96 159.17 C43.61 156.81 42.27 154.44 40.94 152.07 C39.96 150.34 38.98 148.61 37.93 146.92 C34.5 141.31 34.5 141.31 35.29 137.6 C37.9 121.88 37.44 105.43 31.06 90.75 C30.6 89.67 30.15 88.58 29.68 87.47 C25.47 78.33 19.44 70.57 12.06 63.75 C11.55 63.23 11.04 62.71 10.51 62.18 C-3.07 49.18 -21.49 44.03 -39.81 43.19 C-40.69 43.14 -41.57 43.1 -42.48 43.06 C-44.63 42.95 -46.78 42.85 -48.94 42.75 C-48.46 41.92 -47.99 41.1 -47.5 40.25 C-43.42 33.11 -39.36 25.97 -35.35 18.79 C-34.64 17.51 -33.89 16.26 -33.13 15.01 C-31.94 12.75 -31.94 12.75 -30.98 9.61 C-25.85 -3.86 -12.09 -0.54 0 0 Z " fill="#212121" transform="translate(239.9375,80.25)"/>
<path d="M0 0 C0 0.66 0 1.32 0 2 C-0.53 2.23 -1.06 2.46 -1.61 2.7 C-7.67 5.5 -11.37 8.73 -14 15 C-14.94 21.93 -14.63 27.65 -10.44 33.38 C-7.23 37 -4.11 39.82 0.79 40.24 C7.81 40.39 12.41 40.4 18 36 C20.51 33.29 21.83 31.5 23 28 C23.66 28 24.32 28 25 28 C29.69 42.99 29.42 57.77 22.81 72.12 C14.77 87.01 2.62 95.43 -13 101 C-27.76 104.87 -42.64 101.14 -55.51 93.61 C-67.12 86.1 -75.53 74.42 -79 61 C-82.1 45.76 -79.83 32.29 -72 19 C-55.15 -5.9 -26.74 -11.72 0 0 Z " fill="#212121" transform="translate(226,152)"/>
<path d="M0 0 C3.18 2.93 5.23 5.83 7.31 9.61 C7.91 10.7 8.51 11.78 9.13 12.9 C9.75 14.02 10.37 15.15 11 16.31 C12.23 18.54 13.46 20.76 14.69 22.99 C15.26 24.04 15.83 25.08 16.41 26.16 C17.72 28.5 19.11 30.73 20.56 32.98 C22 36 22 36 21.27 38.36 C19.98 41.04 18.62 43.63 17.16 46.22 C16.59 47.24 16.02 48.25 15.43 49.3 C15.14 49.83 15.14 49.83 13.62 52.5 C13.07 53.49 12.51 54.49 11.93 55.51 C6.01 66.04 -0.01 76.51 -6 87 C-28.77 87 -51.54 87 -75 87 C-73.51 83.27 -72.06 80.21 -70.06 76.79 C-69.48 75.8 -68.9 74.81 -68.3 73.79 C-67.04 71.65 -65.78 69.52 -64.52 67.39 C-64.21 66.85 -64.21 66.85 -62.61 64.15 C-61.99 63.1 -61.37 62.05 -60.73 60.97 C-59.24 58.41 -57.8 55.83 -56.39 53.23 C-50.21 41.93 -50.21 41.93 -43.64 39.86 C-23.41 33.28 -9.96 18.12 0 0 Z " fill="#222222" transform="translate(270,232)"/>
<path d="M0 0 C22.77 0 45.54 0 69 0 C67.45 3.88 65.88 7.14 63.8 10.72 C63.18 11.81 62.55 12.9 61.9 14.03 C59.2 18.67 56.48 23.3 53.77 27.94 C52.34 30.41 50.96 32.9 49.62 35.43 C45.27 43.31 41.41 46.07 33 49 C31.17 49.87 29.36 50.76 27.56 51.69 C26.78 52.08 26 52.48 25.19 52.89 C24.47 53.25 23.75 53.62 23 54 C21.67 54.67 20.33 55.33 19 56 C15.37 52.47 11.86 48.9 8.56 45.06 C6.14 42.25 3.64 39.6 1 37 C-8.88 27.23 -8.88 27.23 -12 21 C-8.04 14.07 -4.08 7.14 0 0 Z " fill="#212121" transform="translate(136,81)"/>
<path d="M0 0 C0.99 0.33 1.98 0.66 3 1 C0.33 3.67 -2.33 6.33 -5 9 C-5.99 8.67 -6.98 8.34 -8 8 C-7.05 6.85 -6.09 5.71 -5.12 4.56 C-4.59 3.92 -4.06 3.29 -3.51 2.63 C-2 1 -2 1 0 0 Z " fill="#F2F2F2" transform="translate(221,155)"/>
<path d="M0 0 C0.66 0.33 1.32 0.66 2 1 C0.75 4.46 -0.68 7.15 -3 10 C-4 7 -4 7 -3.22 5.18 C-2.15 3.45 -1.07 1.73 0 0 Z " fill="#EFEFEF" transform="translate(195,111)"/>
<path d="M0 0 C3.8 1.49 5.61 3.76 8 7 C5 7 5 7 2.31 4.62 C0 2 0 2 0 0 Z " fill="#363636" transform="translate(141,251)"/>
<path d="M0 0 C1.98 0 3.96 0 6 0 C6 0.33 6 0.66 6 1 C4.02 1 2.04 1 0 1 C0 0.67 0 0.34 0 0 Z " fill="#FFFFFF" transform="translate(229,399)"/>
<path d="M0 0 C1.98 0 3.96 0 6 0 C6 0.33 6 0.66 6 1 C4.02 1 2.04 1 0 1 C0 0.67 0 0.34 0 0 Z " fill="#FFFFFF" transform="translate(165,399)"/>
<path d="M0 0 C1.98 0 3.96 0 6 0 C6 0.33 6 0.66 6 1 C4.02 1 2.04 1 0 1 C0 0.67 0 0.34 0 0 Z " fill="#FFFFFF" transform="translate(235,398)"/>
<path d="M0 0 C1.98 0 3.96 0 6 0 C6 0.33 6 0.66 6 1 C4.02 1 2.04 1 0 1 C0 0.67 0 0.34 0 0 Z " fill="#FFFFFF" transform="translate(159,398)"/>
<path d="M0 0 C1.98 0 3.96 0 6 0 C6 0.33 6 0.66 6 1 C4.02 1 2.04 1 0 1 C0 0.67 0 0.34 0 0 Z " fill="#FFFFFF" transform="translate(235,1)"/>
<path d="M0 0 C1.98 0 3.96 0 6 0 C6 0.33 6 0.66 6 1 C4.02 1 2.04 1 0 1 C0 0.67 0 0.34 0 0 Z " fill="#FFFFFF" transform="translate(159,1)"/>
<path d="M0 0 C1.98 0 3.96 0 6 0 C6 0.33 6 0.66 6 1 C4.02 1 2.04 1 0 1 C0 0.67 0 0.34 0 0 Z " fill="#FFFFFF" transform="translate(229,0)"/>
<path d="M0 0 C1.98 0 3.96 0 6 0 C6 0.33 6 0.66 6 1 C4.02 1 2.04 1 0 1 C0 0.67 0 0.34 0 0 Z " fill="#FFFFFF" transform="translate(165,0)"/>
<path d="M0 0 C4 1 4 1 4 1 Z " fill="#FFFFFF" transform="translate(241,397)"/>
<path d="M0 0 C4 1 4 1 4 1 Z " fill="#FFFFFF" transform="translate(155,397)"/>
<path d="M0 0 C4 1 4 1 4 1 Z " fill="#FFFFFF" transform="translate(245,396)"/>
<path d="M0 0 C4 1 4 1 4 1 Z " fill="#FFFFFF" transform="translate(151,396)"/>
<path d="M0 0 C4 1 4 1 4 1 Z " fill="#FFFFFF" transform="translate(249,395)"/>
<path d="M0 0 C4 1 4 1 4 1 Z " fill="#FFFFFF" transform="translate(147,395)"/>
<path d="M0 0 C4 1 4 1 4 1 Z " fill="#FFFFFF" transform="translate(253,394)"/>
<path d="M0 0 C4 1 4 1 4 1 Z " fill="#FFFFFF" transform="translate(143,394)"/>
<path d="M0 0 C4 1 4 1 4 1 Z " fill="#FFFFFF" transform="translate(253,5)"/>
<path d="M0 0 C4 1 4 1 4 1 Z " fill="#FFFFFF" transform="translate(143,5)"/>
<path d="M0 0 C4 1 4 1 4 1 Z " fill="#FFFFFF" transform="translate(249,4)"/>
<path d="M0 0 C4 1 4 1 4 1 Z " fill="#FFFFFF" transform="translate(147,4)"/>
<path d="M0 0 C4 1 4 1 4 1 Z " fill="#FFFFFF" transform="translate(245,3)"/>
<path d="M0 0 C4 1 4 1 4 1 Z " fill="#FFFFFF" transform="translate(151,3)"/>
<path d="M0 0 C4 1 4 1 4 1 Z " fill="#FFFFFF" transform="translate(241,2)"/>
<path d="M0 0 C4 1 4 1 4 1 Z " fill="#FFFFFF" transform="translate(155,2)"/>
<path d="M0 0 C3 1 3 1 3 1 Z " fill="#FFFFFF" transform="translate(257,393)"/>
<path d="M0 0 C3 1 3 1 3 1 Z " fill="#FFFFFF" transform="translate(140,393)"/>
<path d="M0 0 C3 1 3 1 3 1 Z " fill="#FFFFFF" transform="translate(260,392)"/>
<path d="M0 0 C3 1 3 1 3 1 Z " fill="#FFFFFF" transform="translate(137,392)"/>
<path d="M0 0 C3 1 3 1 3 1 Z " fill="#FFFFFF" transform="translate(263,391)"/>
<path d="M0 0 C3 1 3 1 3 1 Z " fill="#FFFFFF" transform="translate(134,391)"/>
<path d="M0 0 C3 1 3 1 3 1 Z " fill="#FFFFFF" transform="translate(266,390)"/>
<path d="M0 0 C3 1 3 1 3 1 Z " fill="#FFFFFF" transform="translate(131,390)"/>
<path d="M0 0 C3 1 3 1 3 1 Z " fill="#FFFFFF" transform="translate(271,388)"/>
<path d="M0 0 C3 1 3 1 3 1 Z " fill="#FFFFFF" transform="translate(126,388)"/>
<path d="M0 0 C3 1 3 1 3 1 Z " fill="#FFFFFF" transform="translate(276,386)"/>
<path d="M0 0 C3 1 3 1 3 1 Z " fill="#FFFFFF" transform="translate(121,386)"/>
<path d="M0 0 C3 1 3 1 3 1 Z " fill="#FFFFFF" transform="translate(285,382)"/>
<path d="M0 0 C3 1 3 1 3 1 Z " fill="#FFFFFF" transform="translate(112,382)"/>
<path d="" fill="#FFFFFF" transform="translate(0,0)"/>
<path d="" fill="#FFFFFF" transform="translate(0,0)"/>
<path d="" fill="#FFFFFF" transform="translate(0,0)"/>
<path d="" fill="#FFFFFF" transform="translate(0,0)"/>
<path d="" fill="#FFFFFF" transform="translate(0,0)"/>
<path d="" fill="#FFFFFF" transform="translate(0,0)"/>
<path d="" fill="#FFFFFF" transform="translate(0,0)"/>
<path d="" fill="#FFFFFF" transform="translate(0,0)"/>
<path d="M0 0 C3 1 3 1 3 1 Z " fill="#FFFFFF" transform="translate(285,17)"/>
<path d="M0 0 C3 1 3 1 3 1 Z " fill="#FFFFFF" transform="translate(112,17)"/>
<path d="M0 0 C3 1 3 1 3 1 Z " fill="#FFFFFF" transform="translate(276,13)"/>
<path d="M0 0 C3 1 3 1 3 1 Z " fill="#FFFFFF" transform="translate(121,13)"/>
<path d="M0 0 C3 1 3 1 3 1 Z " fill="#FFFFFF" transform="translate(271,11)"/>
<path d="M0 0 C3 1 3 1 3 1 Z " fill="#FFFFFF" transform="translate(126,11)"/>
<path d="M0 0 C3 1 3 1 3 1 Z " fill="#FFFFFF" transform="translate(266,9)"/>
<path d="M0 0 C3 1 3 1 3 1 Z " fill="#FFFFFF" transform="translate(131,9)"/>
<path d="M0 0 C3 1 3 1 3 1 Z " fill="#FFFFFF" transform="translate(263,8)"/>
<path d="M0 0 C3 1 3 1 3 1 Z " fill="#FFFFFF" transform="translate(134,8)"/>
<path d="M0 0 C3 1 3 1 3 1 Z " fill="#FFFFFF" transform="translate(260,7)"/>
<path d="M0 0 C3 1 3 1 3 1 Z " fill="#FFFFFF" transform="translate(137,7)"/>
<path d="M0 0 C3 1 3 1 3 1 Z " fill="#FFFFFF" transform="translate(257,6)"/>
<path d="M0 0 C3 1 3 1 3 1 Z " fill="#FFFFFF" transform="translate(140,6)"/>
<path d="M0 0 C2 1 2 1 2 1 Z " fill="#FFFFFF" transform="translate(269,389)"/>
<path d="M0 0 C2 1 2 1 2 1 Z " fill="#FFFFFF" transform="translate(129,389)"/>
<path d="M0 0 C2 1 2 1 2 1 Z " fill="#FFFFFF" transform="translate(274,387)"/>
<path d="M0 0 C2 1 2 1 2 1 Z " fill="#FFFFFF" transform="translate(124,387)"/>
<path d="M0 0 C2 1 2 1 2 1 Z " fill="#FFFFFF" transform="translate(279,385)"/>
<path d="M0 0 C2 1 2 1 2 1 Z " fill="#FFFFFF" transform="translate(119,385)"/>
<path d="M0 0 C2 1 2 1 2 1 Z " fill="#FFFFFF" transform="translate(281,384)"/>
<path d="M0 0 C2 1 2 1 2 1 Z " fill="#FFFFFF" transform="translate(117,384)"/>
<path d="M0 0 C2 1 2 1 2 1 Z " fill="#FFFFFF" transform="translate(283,383)"/>
<path d="M0 0 C2 1 2 1 2 1 Z " fill="#FFFFFF" transform="translate(115,383)"/>
<path d="M0 0 C2 1 2 1 2 1 Z " fill="#FFFFFF" transform="translate(288,381)"/>
<path d="M0 0 C2 1 2 1 2 1 Z " fill="#FFFFFF" transform="translate(110,381)"/>
<path d="M0 0 C2 1 2 1 2 1 Z " fill="#FFFFFF" transform="translate(290,380)"/>
<path d="M0 0 C2 1 2 1 2 1 Z " fill="#FFFFFF" transform="translate(108,380)"/>
<path d="M0 0 C2 1 2 1 2 1 Z " fill="#FFFFFF" transform="translate(293,378)"/>
<path d="M0 0 C2 1 2 1 2 1 Z " fill="#FFFFFF" transform="translate(105,378)"/>
<path d="M0 0 C2 1 2 1 2 1 Z " fill="#FFFFFF" transform="translate(295,377)"/>
<path d="M0 0 C2 1 2 1 2 1 Z " fill="#FFFFFF" transform="translate(103,377)"/>
<path d="M0 0 C2 1 2 1 2 1 Z " fill="#FFFFFF" transform="translate(297,376)"/>
<path d="M0 0 C2 1 2 1 2 1 Z " fill="#FFFFFF" transform="translate(101,376)"/>
<path d="M0 0 C2 1 2 1 2 1 Z " fill="#FFFFFF" transform="translate(299,375)"/>
<path d="M0 0 C2 1 2 1 2 1 Z " fill="#FFFFFF" transform="translate(99,375)"/>
<path d="M0 0 C2 1 2 1 2 1 Z " fill="#FFFFFF" transform="translate(302,373)"/>
<path d="M0 0 C2 1 2 1 2 1 Z " fill="#FFFFFF" transform="translate(96,373)"/>
<path d="M0 0 C2 1 2 1 2 1 Z " fill="#FFFFFF" transform="translate(304,372)"/>
<path d="M0 0 C2 1 2 1 2 1 Z " fill="#FFFFFF" transform="translate(94,372)"/>
<path d="M0 0 C2 1 2 1 2 1 Z " fill="#FFFFFF" transform="translate(307,370)"/>
<path d="M0 0 C2 1 2 1 2 1 Z " fill="#FFFFFF" transform="translate(91,370)"/>
<path d="M0 0 C2 1 2 1 2 1 Z " fill="#FFFFFF" transform="translate(310,368)"/>
<path d="M0 0 C2 1 2 1 2 1 Z " fill="#FFFFFF" transform="translate(88,368)"/>
<path d="M0 0 C2 1 2 1 2 1 Z " fill="#FFFFFF" transform="translate(313,366)"/>
<path d="M0 0 C2 1 2 1 2 1 Z " fill="#FFFFFF" transform="translate(85,366)"/>
<path d="M0 0 C2 1 2 1 2 1 Z " fill="#FFFFFF" transform="translate(316,364)"/>
<path d="M0 0 C2 1 2 1 2 1 Z " fill="#FFFFFF" transform="translate(82,364)"/>
<path d="M0 0 C2 1 2 1 2 1 Z " fill="#FFFFFF" transform="translate(320,361)"/>
<path d="M0 0 C2 1 2 1 2 1 Z " fill="#FFFFFF" transform="translate(78,361)"/>
<path d="M0 0 C2 1 2 1 2 1 Z " fill="#FFFFFF" transform="translate(325,357)"/>
<path d="M0 0 C2 1 2 1 2 1 Z " fill="#FFFFFF" transform="translate(73,357)"/>
<path d="M0 0 C2 1 2 1 2 1 Z " fill="#FFFFFF" transform="translate(331,352)"/>
<path d="M0 0 C2 1 2 1 2 1 Z " fill="#FFFFFF" transform="translate(67,352)"/>
<path d="" fill="#FFFFFF" transform="translate(0,0)"/>
<path d="" fill="#FFFFFF" transform="translate(0,0)"/>
<path d="" fill="#FFFFFF" transform="translate(0,0)"/>
<path d="" fill="#FFFFFF" transform="translate(0,0)"/>
<path d="" fill="#FFFFFF" transform="translate(0,0)"/>
<path d="" fill="#FFFFFF" transform="translate(0,0)"/>
<path d="" fill="#FFFFFF" transform="translate(0,0)"/>
<path d="" fill="#FFFFFF" transform="translate(0,0)"/>
<path d="" fill="#FFFFFF" transform="translate(0,0)"/>
<path d="" fill="#FFFFFF" transform="translate(0,0)"/>
<path d="" fill="#FFFFFF" transform="translate(0,0)"/>
<path d="" fill="#FFFFFF" transform="translate(0,0)"/>
<path d="" fill="#FFFFFF" transform="translate(0,0)"/>
<path d="" fill="#FFFFFF" transform="translate(0,0)"/>
<path d="" fill="#FFFFFF" transform="translate(0,0)"/>
<path d="" fill="#FFFFFF" transform="translate(0,0)"/>
<path d="M0 0 C2 1 2 1 2 1 Z " fill="#FFFFFF" transform="translate(331,47)"/>
<path d="M0 0 C2 1 2 1 2 1 Z " fill="#FFFFFF" transform="translate(67,47)"/>
<path d="M0 0 C2 1 2 1 2 1 Z " fill="#FFFFFF" transform="translate(325,42)"/>
<path d="M0 0 C2 1 2 1 2 1 Z " fill="#FFFFFF" transform="translate(73,42)"/>
<path d="M0 0 C2 1 2 1 2 1 Z " fill="#FFFFFF" transform="translate(320,38)"/>
<path d="M0 0 C2 1 2 1 2 1 Z " fill="#FFFFFF" transform="translate(78,38)"/>
<path d="M0 0 C2 1 2 1 2 1 Z " fill="#FFFFFF" transform="translate(316,35)"/>
<path d="M0 0 C2 1 2 1 2 1 Z " fill="#FFFFFF" transform="translate(82,35)"/>
<path d="M0 0 C2 1 2 1 2 1 Z " fill="#FFFFFF" transform="translate(313,33)"/>
<path d="M0 0 C2 1 2 1 2 1 Z " fill="#FFFFFF" transform="translate(85,33)"/>
<path d="M0 0 C2 1 2 1 2 1 Z " fill="#FFFFFF" transform="translate(310,31)"/>
<path d="M0 0 C2 1 2 1 2 1 Z " fill="#FFFFFF" transform="translate(88,31)"/>
<path d="M0 0 C2 1 2 1 2 1 Z " fill="#FFFFFF" transform="translate(307,29)"/>
<path d="M0 0 C2 1 2 1 2 1 Z " fill="#FFFFFF" transform="translate(91,29)"/>
<path d="M0 0 C2 1 2 1 2 1 Z " fill="#FFFFFF" transform="translate(304,27)"/>
<path d="M0 0 C2 1 2 1 2 1 Z " fill="#FFFFFF" transform="translate(94,27)"/>
<path d="M0 0 C2 1 2 1 2 1 Z " fill="#FFFFFF" transform="translate(302,26)"/>
<path d="M0 0 C2 1 2 1 2 1 Z " fill="#FFFFFF" transform="translate(96,26)"/>
<path d="M0 0 C2 1 2 1 2 1 Z " fill="#FFFFFF" transform="translate(299,24)"/>
<path d="M0 0 C2 1 2 1 2 1 Z " fill="#FFFFFF" transform="translate(99,24)"/>
<path d="M0 0 C2 1 2 1 2 1 Z " fill="#FFFFFF" transform="translate(297,23)"/>
<path d="M0 0 C2 1 2 1 2 1 Z " fill="#FFFFFF" transform="translate(101,23)"/>
<path d="M0 0 C2 1 2 1 2 1 Z " fill="#FFFFFF" transform="translate(295,22)"/>
<path d="M0 0 C2 1 2 1 2 1 Z " fill="#FFFFFF" transform="translate(103,22)"/>
<path d="M0 0 C2 1 2 1 2 1 Z " fill="#FFFFFF" transform="translate(293,21)"/>
<path d="M0 0 C2 1 2 1 2 1 Z " fill="#FFFFFF" transform="translate(105,21)"/>
<path d="M0 0 C2 1 2 1 2 1 Z " fill="#FFFFFF" transform="translate(290,19)"/>
<path d="M0 0 C2 1 2 1 2 1 Z " fill="#FFFFFF" transform="translate(108,19)"/>
<path d="M0 0 C2 1 2 1 2 1 Z " fill="#FFFFFF" transform="translate(288,18)"/>
<path d="M0 0 C2 1 2 1 2 1 Z " fill="#FFFFFF" transform="translate(110,18)"/>
<path d="M0 0 C2 1 2 1 2 1 Z " fill="#FFFFFF" transform="translate(283,16)"/>
<path d="M0 0 C2 1 2 1 2 1 Z " fill="#FFFFFF" transform="translate(115,16)"/>
<path d="M0 0 C2 1 2 1 2 1 Z " fill="#FFFFFF" transform="translate(281,15)"/>
<path d="M0 0 C2 1 2 1 2 1 Z " fill="#FFFFFF" transform="translate(117,15)"/>
<path d="M0 0 C2 1 2 1 2 1 Z " fill="#FFFFFF" transform="translate(279,14)"/>
<path d="M0 0 C2 1 2 1 2 1 Z " fill="#FFFFFF" transform="translate(119,14)"/>
<path d="M0 0 C2 1 2 1 2 1 Z " fill="#FFFFFF" transform="translate(274,12)"/>
<path d="M0 0 C2 1 2 1 2 1 Z " fill="#FFFFFF" transform="translate(124,12)"/>
<path d="M0 0 C2 1 2 1 2 1 Z " fill="#FFFFFF" transform="translate(269,10)"/>
<path d="M0 0 C2 1 2 1 2 1 Z " fill="#FFFFFF" transform="translate(129,10)"/>
<path d="" fill="#FFFFFF" transform="translate(0,0)"/>
<path d="" fill="#FFFFFF" transform="translate(0,0)"/>
<path d="" fill="#FFFFFF" transform="translate(0,0)"/>
<path d="" fill="#FFFFFF" transform="translate(0,0)"/>
<path d="" fill="#FFFFFF" transform="translate(0,0)"/>
<path d="" fill="#FFFFFF" transform="translate(0,0)"/>
<path d="" fill="#FFFFFF" transform="translate(0,0)"/>
<path d="" fill="#FFFFFF" transform="translate(0,0)"/>
<path d="" fill="#FFFFFF" transform="translate(0,0)"/>
<path d="" fill="#FFFFFF" transform="translate(0,0)"/>
<path d="" fill="#FFFFFF" transform="translate(0,0)"/>
<path d="" fill="#FFFFFF" transform="translate(0,0)"/>
<path d="" fill="#FFFFFF" transform="translate(0,0)"/>
<path d="" fill="#FFFFFF" transform="translate(0,0)"/>
<path d="" fill="#FFFFFF" transform="translate(0,0)"/>
<path d="" fill="#FFFFFF" transform="translate(0,0)"/>
<path d="" fill="#FFFFFF" transform="translate(0,0)"/>
<path d="" fill="#FFFFFF" transform="translate(0,0)"/>
<path d="" fill="#FFFFFF" transform="translate(0,0)"/>
<path d="" fill="#FFFFFF" transform="translate(0,0)"/>
<path d="" fill="#FFFFFF" transform="translate(0,0)"/>
<path d="" fill="#FFFFFF" transform="translate(0,0)"/>
<path d="" fill="#FFFFFF" transform="translate(0,0)"/>
<path d="" fill="#FFFFFF" transform="translate(0,0)"/>
<path d="" fill="#FFFFFF" transform="translate(0,0)"/>
<path d="" fill="#FFFFFF" transform="translate(0,0)"/>
<path d="" fill="#FFFFFF" transform="translate(0,0)"/>
<path d="" fill="#FFFFFF" transform="translate(0,0)"/>
<path d="" fill="#FFFFFF" transform="translate(0,0)"/>
<path d="" fill="#FFFFFF" transform="translate(0,0)"/>
<path d="" fill="#FFFFFF" transform="translate(0,0)"/>
<path d="" fill="#FFFFFF" transform="translate(0,0)"/>
<path d="" fill="#FFFFFF" transform="translate(0,0)"/>
<path d="" fill="#FFFFFF" transform="translate(0,0)"/>
<path d="" fill="#FFFFFF" transform="translate(0,0)"/>
<path d="" fill="#FFFFFF" transform="translate(0,0)"/>
<path d="" fill="#FFFFFF" transform="translate(0,0)"/>
<path d="" fill="#FFFFFF" transform="translate(0,0)"/>
<path d="" fill="#FFFFFF" transform="translate(0,0)"/>
<path d="" fill="#FFFFFF" transform="translate(0,0)"/>
<path d="" fill="#FFFFFF" transform="translate(0,0)"/>
<path d="" fill="#FFFFFF" transform="translate(0,0)"/>
<path d="" fill="#FFFFFF" transform="translate(0,0)"/>
<path d="" fill="#FFFFFF" transform="translate(0,0)"/>
<path d="" fill="#FFFFFF" transform="translate(0,0)"/>
<path d="" fill="#FFFFFF" transform="translate(0,0)"/>
<path d="" fill="#FFFFFF" transform="translate(0,0)"/>
<path d="" fill="#FFFFFF" transform="translate(0,0)"/>
<path d="" fill="#FFFFFF" transform="translate(0,0)"/>
<path d="" fill="#FFFFFF" transform="translate(0,0)"/>
<path d="" fill="#FFFFFF" transform="translate(0,0)"/>
<path d="" fill="#FFFFFF" transform="translate(0,0)"/>
<path d="" fill="#FFFFFF" transform="translate(0,0)"/>
<path d="" fill="#FFFFFF" transform="translate(0,0)"/>
<path d="" fill="#FFFFFF" transform="translate(0,0)"/>
<path d="" fill="#FFFFFF" transform="translate(0,0)"/>
<path d="" fill="#FFFFFF" transform="translate(0,0)"/>
<path d="" fill="#FFFFFF" transform="translate(0,0)"/>
<path d="" fill="#FFFFFF" transform="translate(0,0)"/>
<path d="" fill="#FFFFFF" transform="translate(0,0)"/>
<path d="" fill="#FFFFFF" transform="translate(0,0)"/>
<path d="" fill="#FFFFFF" transform="translate(0,0)"/>
<path d="" fill="#FFFFFF" transform="translate(0,0)"/>
<path d="" fill="#FFFFFF" transform="translate(0,0)"/>
<path d="" fill="#FFFFFF" transform="translate(0,0)"/>
<path d="" fill="#FFFFFF" transform="translate(0,0)"/>
<path d="" fill="#FFFFFF" transform="translate(0,0)"/>
<path d="" fill="#FFFFFF" transform="translate(0,0)"/>
<path d="" fill="#FFFFFF" transform="translate(0,0)"/>
<path d="" fill="#FFFFFF" transform="translate(0,0)"/>
<path d="" fill="#FFFFFF" transform="translate(0,0)"/>
<path d="" fill="#FFFFFF" transform="translate(0,0)"/>
<path d="" fill="#FFFFFF" transform="translate(0,0)"/>
<path d="" fill="#FFFFFF" transform="translate(0,0)"/>
<path d="" fill="#FFFFFF" transform="translate(0,0)"/>
<path d="" fill="#FFFFFF" transform="translate(0,0)"/>
<path d="" fill="#FFFFFF" transform="translate(0,0)"/>
<path d="" fill="#FFFFFF" transform="translate(0,0)"/>
<path d="" fill="#FFFFFF" transform="translate(0,0)"/>
<path d="" fill="#FFFFFF" transform="translate(0,0)"/>
<path d="" fill="#FFFFFF" transform="translate(0,0)"/>
<path d="" fill="#FFFFFF" transform="translate(0,0)"/>
<path d="" fill="#FFFFFF" transform="translate(0,0)"/>
<path d="" fill="#FFFFFF" transform="translate(0,0)"/>
<path d="" fill="#FFFFFF" transform="translate(0,0)"/>
<path d="" fill="#FFFFFF" transform="translate(0,0)"/>
<path d="" fill="#FFFFFF" transform="translate(0,0)"/>
<path d="" fill="#FFFFFF" transform="translate(0,0)"/>
<path d="" fill="#FFFFFF" transform="translate(0,0)"/>
<path d="" fill="#FFFFFF" transform="translate(0,0)"/>
<path d="" fill="#FFFFFF" transform="translate(0,0)"/>
<path d="" fill="#FFFFFF" transform="translate(0,0)"/>
<path d="" fill="#FFFFFF" transform="translate(0,0)"/>
<path d="" fill="#FFFFFF" transform="translate(0,0)"/>
<path d="" fill="#FFFFFF" transform="translate(0,0)"/>
<path d="" fill="#FFFFFF" transform="translate(0,0)"/>
<path d="" fill="#FFFFFF" transform="translate(0,0)"/>
<path d="" fill="#FFFFFF" transform="translate(0,0)"/>
<path d="" fill="#FFFFFF" transform="translate(0,0)"/>
<path d="" fill="#FFFFFF" transform="translate(0,0)"/>
<path d="" fill="#FFFFFF" transform="translate(0,0)"/>
<path d="" fill="#FFFFFF" transform="translate(0,0)"/>
<path d="" fill="#FFFFFF" transform="translate(0,0)"/>
<path d="" fill="#FFFFFF" transform="translate(0,0)"/>
<path d="" fill="#FFFFFF" transform="translate(0,0)"/>
<path d="" fill="#FFFFFF" transform="translate(0,0)"/>
<path d="" fill="#FFFFFF" transform="translate(0,0)"/>
<path d="" fill="#FFFFFF" transform="translate(0,0)"/>
<path d="" fill="#FFFFFF" transform="translate(0,0)"/>
<path d="" fill="#FFFFFF" transform="translate(0,0)"/>
<path d="" fill="#FFFFFF" transform="translate(0,0)"/>
<path d="" fill="#FFFFFF" transform="translate(0,0)"/>
<path d="" fill="#FFFFFF" transform="translate(0,0)"/>
<path d="" fill="#FFFFFF" transform="translate(0,0)"/>
<path d="" fill="#FFFFFF" transform="translate(0,0)"/>
<path d="" fill="#FFFFFF" transform="translate(0,0)"/>
<path d="" fill="#FFFFFF" transform="translate(0,0)"/>
<path d="" fill="#FFFFFF" transform="translate(0,0)"/>
<path d="" fill="#FFFFFF" transform="translate(0,0)"/>
<path d="" fill="#FFFFFF" transform="translate(0,0)"/>
<path d="" fill="#FFFFFF" transform="translate(0,0)"/>
<path d="" fill="#FFFFFF" transform="translate(0,0)"/>
<path d="" fill="#FFFFFF" transform="translate(0,0)"/>
<path d="" fill="#FFFFFF" transform="translate(0,0)"/>
<path d="" fill="#FFFFFF" transform="translate(0,0)"/>
<path d="" fill="#FFFFFF" transform="translate(0,0)"/>
<path d="" fill="#FFFFFF" transform="translate(0,0)"/>
<path d="" fill="#FFFFFF" transform="translate(0,0)"/>
<path d="" fill="#FFFFFF" transform="translate(0,0)"/>
<path d="" fill="#FFFFFF" transform="translate(0,0)"/>
<path d="" fill="#FFFFFF" transform="translate(0,0)"/>
<path d="" fill="#FFFFFF" transform="translate(0,0)"/>
<path d="" fill="#FFFFFF" transform="translate(0,0)"/>
<path d="" fill="#FFFFFF" transform="translate(0,0)"/>
<path d="" fill="#FFFFFF" transform="translate(0,0)"/>
<path d="" fill="#FFFFFF" transform="translate(0,0)"/>
<path d="" fill="#FFFFFF" transform="translate(0,0)"/>
<path d="" fill="#FFFFFF" transform="translate(0,0)"/>
<path d="" fill="#FFFFFF" transform="translate(0,0)"/>
<path d="" fill="#FFFFFF" transform="translate(0,0)"/>
</svg>
